<svg xmlns="http://www.w3.org/2000/svg" width="1600" height="753" fill="none"><path fill="#F8F9FA" d="M0 0h1600v753H0z"/><g filter="url(#a)"><g clip-path="url(#b)"><rect width="118" height="118" x="396.333" y="178.833" fill="#E1F0FF" rx="16"/><path stroke="#000" stroke-linecap="round" stroke-linejoin="round" stroke-width="2" d="M471.533 259.433a16.197 16.197 0 0 0-16.2-16.2 16.2 16.2 0 0 0-16.2 16.2"/><path stroke="#000" stroke-linecap="round" stroke-linejoin="round" stroke-width="2" d="M455.333 243.233c5.965 0 10.8-4.835 10.8-10.8 0-5.964-4.835-10.8-10.8-10.8-5.964 0-10.8 4.836-10.8 10.8 0 5.965 4.836 10.8 10.8 10.8Z"/><path stroke="#000" stroke-linecap="round" stroke-linejoin="round" stroke-width="2" d="M455.333 264.833c14.912 0 27-12.088 27-27 0-14.911-12.088-27-27-27-14.911 0-27 12.089-27 27 0 14.912 12.089 27 27 27Z"/><rect width="112" height="118" x="538.333" y="178.833" fill="#FFF8BB" rx="16"/><path stroke="#000" stroke-linecap="round" stroke-linejoin="round" stroke-width="2" d="M594.333 227.033c13.255 0 24-3.626 24-8.1 0-4.473-10.745-8.1-24-8.1-13.254 0-24 3.627-24 8.1 0 4.474 10.746 8.1 24 8.1Z"/><path stroke="#000" stroke-linecap="round" stroke-linejoin="round" stroke-width="2" d="M570.333 218.933v37.8c0 2.149 2.529 4.209 7.03 5.728 4.501 1.519 10.605 2.372 16.97 2.372 6.366 0 12.47-.853 16.971-2.372 4.501-1.519 7.029-3.579 7.029-5.728v-37.8"/><path stroke="#000" stroke-linecap="round" stroke-linejoin="round" stroke-width="2" d="M570.333 237.833c0 2.149 2.529 4.209 7.03 5.728 4.501 1.519 10.605 2.372 16.97 2.372 6.366 0 12.47-.853 16.971-2.372 4.501-1.519 7.029-3.579 7.029-5.728"/><path fill="#8445BC" fill-opacity=".2" d="M364.333 146.833h317v181h-317z"/></g><rect width="313.333" height="177.333" x="366.333" y="148.833" stroke="#BE93E4" stroke-width="4" rx="14"/><rect width="121" height="45" x="462.5" y="123.833" fill="#BE93E4" rx="16"/><path fill="#F8F9FA" d="M499.591 143.021a3.827 3.827 0 0 0-.503-1.1 3.118 3.118 0 0 0-.793-.818 3.415 3.415 0 0 0-1.056-.52 4.479 4.479 0 0 0-1.304-.179c-.892 0-1.676.222-2.353.665-.67.443-1.193 1.088-1.568 1.935-.375.841-.562 1.869-.562 3.085s.184 2.25.554 3.102c.369.853.892 1.503 1.568 1.952.676.443 1.474.665 2.395.665.835 0 1.548-.148 2.139-.443a3.186 3.186 0 0 0 1.364-1.27c.318-.546.477-1.191.477-1.935l.75.111h-4.5v-2.779h7.304v2.199c0 1.534-.324 2.853-.972 3.955a6.626 6.626 0 0 1-2.676 2.54c-1.136.59-2.437.886-3.903.886-1.637 0-3.074-.361-4.313-1.082-1.238-.728-2.204-1.759-2.898-3.094-.687-1.341-1.031-2.932-1.031-4.773 0-1.415.205-2.676.614-3.784.415-1.114.994-2.057 1.738-2.83a7.536 7.536 0 0 1 2.6-1.764c.989-.403 2.06-.605 3.213-.605.989 0 1.909.145 2.761.435a7.338 7.338 0 0 1 2.267 1.21 6.553 6.553 0 0 1 1.628 1.866c.421.716.691 1.506.81 2.37h-3.75Zm6.616 11.812v-13.091h3.52v2.284h.136c.239-.812.639-1.426 1.202-1.84a3.154 3.154 0 0 1 1.943-.631 5.414 5.414 0 0 1 1.142.128v3.221a4.8 4.8 0 0 0-.708-.136 6.307 6.307 0 0 0-.826-.06c-.534 0-1.012.117-1.432.35a2.574 2.574 0 0 0-.989.954c-.238.409-.358.881-.358 1.415v7.406h-3.63Zm15.125.256c-1.323 0-2.468-.281-3.434-.844a5.779 5.779 0 0 1-2.225-2.369c-.522-1.017-.784-2.196-.784-3.537 0-1.352.262-2.534.784-3.545a5.709 5.709 0 0 1 2.225-2.37c.966-.568 2.111-.852 3.434-.852 1.324 0 2.466.284 3.427.852a5.687 5.687 0 0 1 2.232 2.37c.523 1.011.785 2.193.785 3.545 0 1.341-.262 2.52-.785 3.537a5.756 5.756 0 0 1-2.232 2.369c-.961.563-2.103.844-3.427.844Zm.017-2.813c.603 0 1.106-.17 1.509-.511.403-.346.707-.818.912-1.415.21-.596.315-1.275.315-2.037 0-.761-.105-1.44-.315-2.037-.205-.596-.509-1.068-.912-1.414-.403-.347-.906-.52-1.509-.52-.608 0-1.119.173-1.534.52-.409.346-.718.818-.929 1.414-.204.597-.306 1.276-.306 2.037 0 .762.102 1.441.306 2.037.211.597.52 1.069.929 1.415.415.341.926.511 1.534.511Zm17.182-3.017v-7.517h3.631v13.091h-3.486v-2.378h-.136a3.864 3.864 0 0 1-1.475 1.85c-.681.466-1.514.699-2.497.699-.875 0-1.645-.199-2.309-.597-.665-.398-1.185-.963-1.56-1.696-.369-.733-.557-1.611-.563-2.633v-8.336h3.631v7.688c.006.773.213 1.383.622 1.832.409.449.958.674 1.645.674.438 0 .847-.1 1.227-.299.381-.204.688-.505.921-.903.238-.398.355-.889.349-1.475Zm6.535 10.483v-18h3.58v2.199h.162c.159-.352.389-.71.69-1.074a3.636 3.636 0 0 1 1.193-.92c.494-.25 1.108-.375 1.841-.375.955 0 1.835.25 2.642.75.807.494 1.452 1.241 1.935 2.241.483.995.724 2.242.724 3.742 0 1.46-.236 2.693-.707 3.699-.466 1-1.103 1.758-1.909 2.275-.802.512-1.699.767-2.694.767-.704 0-1.304-.116-1.798-.349a3.738 3.738 0 0 1-1.202-.878 4.456 4.456 0 0 1-.715-1.082h-.111v7.005h-3.631Zm3.554-11.454c0 .778.108 1.457.324 2.037.216.579.528 1.031.937 1.355.409.318.907.477 1.492.477.591 0 1.091-.162 1.5-.486.409-.329.719-.784.929-1.363.216-.585.324-1.259.324-2.02 0-.756-.105-1.421-.316-1.994-.21-.574-.52-1.023-.929-1.347-.409-.324-.912-.486-1.508-.486-.591 0-1.091.156-1.5.469-.404.312-.713.756-.929 1.329-.216.574-.324 1.25-.324 2.029Z"/></g><g filter="url(#c)"><circle cx="1173.5" cy="238" r="62" fill="#FFEFEF" stroke="#EB9091" stroke-width="4"/><path fill="#7E868C" fill-rule="evenodd" d="m1172.13 203.272-21.1 33.587c-.25.206-.42.485-.5.791l-.65 1.033 23.62 13.669 23.62-13.669-22.25-35.411c-.07-.16-.16-.306-.27-.432l-1.1-1.745-1.1 1.745c-.11.126-.2.272-.27.432Zm-.11 5.722-15.97 25.429 15.97-7.607v-17.822Zm0 21.092-17.06 8.124 17.06 9.876v-18Zm2.96 18V230.12l16.78 8.255-16.78 9.711Zm0-21.256v-17.836l16.22 25.816-16.22-7.98Zm-1.65 29.523-23.45-13.569 23.62 32.121 23.62-32.121-23.45 13.569c-.05-.007-.11-.01-.17-.01-.06 0-.12.003-.17.01Zm-1.31 2.656-11.39-6.596 11.39 15.5v-8.904Zm2.96 8.904 11.39-15.5-11.39 6.596v8.904Z" clip-rule="evenodd"/></g><path fill="#BE93E4" d="m1103.5 238-20-11.547v23.094l20-11.547Zm-419.833-.5v-8h-4v8h4Zm-4 0v8h4v-8h-4Zm2 2h210.666v-4H681.667v4Zm211.166.5H1085.5v-4H892.833v4Zm-2.25-2.25a2.25 2.25 0 0 0 2.25 2.25v-4c.967 0 1.75.784 1.75 1.75h-4Zm1.75 1.75a1.75 1.75 0 0 1-1.75-1.75h4a2.25 2.25 0 0 0-2.25-2.25v4Z"/><g filter="url(#d)"><path fill="#FBFCFD" stroke="#EB9091" stroke-linecap="round" stroke-linejoin="round" stroke-width="4" d="M1173.5 164c9.94 0 18-8.059 18-18s-8.06-18-18-18-18 8.059-18 18 8.06 18 18 18Z"/><path fill="#FBFCFD" d="M1168.26 140.6a5.398 5.398 0 0 1 6.01-3.53c1.26.215 2.4.869 3.22 1.844a5.42 5.42 0 0 1 1.27 3.486c0 3.6-5.4 5.4-5.4 5.4"/><path stroke="#EB9091" stroke-linecap="round" stroke-linejoin="round" stroke-width="4" d="M1168.26 140.6a5.398 5.398 0 0 1 6.01-3.53c1.26.215 2.4.869 3.22 1.844a5.42 5.42 0 0 1 1.27 3.486c0 3.6-5.4 5.4-5.4 5.4"/><path fill="#FBFCFD" d="M1173.5 155h.02-.02Z"/><path stroke="#EB9091" stroke-linecap="round" stroke-linejoin="round" stroke-width="4" d="M1173.5 155h.02"/></g><g filter="url(#e)"><g clip-path="url(#f)"><rect width="118" height="118" x="396.333" y="479.333" fill="#E1F0FF" rx="16"/><path stroke="#000" stroke-linecap="round" stroke-linejoin="round" stroke-width="2" d="M471.533 559.933a16.197 16.197 0 0 0-16.2-16.2 16.2 16.2 0 0 0-16.2 16.2"/><path stroke="#000" stroke-linecap="round" stroke-linejoin="round" stroke-width="2" d="M455.333 543.733c5.965 0 10.8-4.835 10.8-10.8 0-5.964-4.835-10.8-10.8-10.8-5.964 0-10.8 4.836-10.8 10.8 0 5.965 4.836 10.8 10.8 10.8Z"/><path stroke="#000" stroke-linecap="round" stroke-linejoin="round" stroke-width="2" d="M455.333 565.333c14.912 0 27-12.088 27-27 0-14.911-12.088-27-27-27-14.911 0-27 12.089-27 27 0 14.912 12.089 27 27 27Z"/><rect width="112" height="118" x="538.333" y="479.333" fill="#FFF8BB" rx="16"/><path stroke="#000" stroke-linecap="round" stroke-linejoin="round" stroke-width="2" d="M594.333 527.533c13.255 0 24-3.626 24-8.1 0-4.473-10.745-8.1-24-8.1-13.254 0-24 3.627-24 8.1 0 4.474 10.746 8.1 24 8.1Z"/><path stroke="#000" stroke-linecap="round" stroke-linejoin="round" stroke-width="2" d="M570.333 519.433v37.8c0 2.149 2.529 4.209 7.03 5.728 4.501 1.519 10.605 2.372 16.97 2.372 6.366 0 12.47-.853 16.971-2.372 4.501-1.519 7.029-3.579 7.029-5.728v-37.8"/><path stroke="#000" stroke-linecap="round" stroke-linejoin="round" stroke-width="2" d="M570.333 538.333c0 2.149 2.529 4.209 7.03 5.728 4.501 1.519 10.605 2.372 16.97 2.372 6.366 0 12.47-.853 16.971-2.372 4.501-1.519 7.029-3.579 7.029-5.728"/><path fill="#3A5CCC" fill-opacity=".2" d="M364.333 447.333h317v181h-317z"/></g><rect width="313.333" height="177.333" x="366.333" y="449.333" stroke="#8DA4EF" stroke-width="4" rx="14"/><rect width="265" height="45" x="390.5" y="424.333" fill="#8DA4EF" rx="16"/><path fill="#F8F9FA" d="M419.682 455.581c-.835 0-1.58-.145-2.233-.435a3.59 3.59 0 0 1-1.551-1.304c-.375-.58-.563-1.301-.563-2.165 0-.727.134-1.338.401-1.832a3.23 3.23 0 0 1 1.091-1.193c.46-.302.983-.529 1.568-.682.591-.154 1.21-.262 1.858-.324.761-.08 1.375-.154 1.841-.222.466-.074.804-.182 1.014-.324.21-.142.315-.352.315-.63v-.051c0-.54-.17-.958-.511-1.253-.335-.296-.813-.443-1.432-.443-.653 0-1.173.144-1.56.434a2.001 2.001 0 0 0-.767 1.074l-3.358-.273a4.567 4.567 0 0 1 1.006-2.062c.5-.585 1.145-1.034 1.935-1.347.795-.318 1.716-.477 2.761-.477.727 0 1.423.085 2.088.256.671.17 1.264.434 1.781.792.523.358.935.818 1.236 1.381.301.557.452 1.224.452 2.003v8.829h-3.443v-1.815h-.102c-.211.409-.492.77-.844 1.082a3.912 3.912 0 0 1-1.27.725c-.494.17-1.065.256-1.713.256Zm1.04-2.506c.534 0 1.005-.105 1.414-.315.409-.216.73-.506.963-.87.233-.363.35-.775.35-1.236v-1.389c-.114.074-.27.142-.469.205a8.41 8.41 0 0 1-.656.162c-.244.045-.489.088-.733.128l-.665.093a4.48 4.48 0 0 0-1.116.299 1.778 1.778 0 0 0-.742.554c-.176.227-.264.511-.264.852 0 .494.179.872.537 1.133.364.256.824.384 1.381.384Zm9.217 2.258v-17.454h3.631v6.562h.11c.159-.352.39-.71.691-1.074a3.636 3.636 0 0 1 1.193-.92c.494-.25 1.108-.375 1.841-.375.954 0 1.835.25 2.642.75.807.494 1.452 1.241 1.935 2.241.482.995.724 2.242.724 3.742 0 1.46-.236 2.693-.707 3.699-.466 1-1.103 1.758-1.91 2.275-.801.512-1.698.767-2.693.767-.704 0-1.304-.116-1.798-.349a3.727 3.727 0 0 1-1.202-.878 4.491 4.491 0 0 1-.716-1.082h-.162v2.096h-3.579Zm3.554-6.545c0 .778.108 1.457.324 2.037.216.579.528 1.031.937 1.355.409.318.907.477 1.492.477.591 0 1.091-.162 1.5-.486.409-.329.718-.784.929-1.363.216-.585.324-1.259.324-2.02 0-.756-.106-1.421-.316-1.994-.21-.574-.52-1.023-.929-1.347-.409-.324-.912-.486-1.508-.486-.591 0-1.091.156-1.5.469-.404.312-.713.756-.929 1.33-.216.573-.324 1.25-.324 2.028Zm11.636 6.545v-13.091h3.63v13.091h-3.63Zm1.823-14.778a1.974 1.974 0 0 1-1.389-.537c-.38-.364-.571-.798-.571-1.304 0-.5.191-.929.571-1.287.387-.364.85-.545 1.389-.545.54 0 1 .181 1.381.545.386.358.58.787.58 1.287 0 .506-.194.94-.58 1.304a1.944 1.944 0 0 1-1.381.537Zm6.838 15a1.989 1.989 0 0 1-1.449-.597 1.988 1.988 0 0 1-.597-1.448c0-.557.199-1.035.597-1.432a1.989 1.989 0 0 1 1.449-.597c.545 0 1.023.199 1.432.597.409.397.613.875.613 1.432 0 .375-.096.718-.29 1.031a2.189 2.189 0 0 1-.741.741 1.952 1.952 0 0 1-1.014.273Zm10.992.034c-1.347 0-2.506-.273-3.477-.818a5.601 5.601 0 0 1-2.233-2.335c-.523-1.012-.784-2.208-.784-3.588 0-1.347.261-2.529.784-3.546a5.789 5.789 0 0 1 2.207-2.378c.955-.568 2.074-.852 3.358-.852.864 0 1.668.139 2.412.418.75.272 1.403.684 1.96 1.235.563.552 1 1.245 1.313 2.08.312.83.468 1.801.468 2.915v.997h-11.053v-2.25h7.636c0-.523-.114-.986-.341-1.389a2.437 2.437 0 0 0-.946-.946c-.398-.233-.861-.35-1.389-.35-.551 0-1.04.128-1.466.384-.421.25-.75.588-.989 1.014-.238.42-.361.889-.366 1.406v2.139c0 .648.119 1.208.358 1.679.244.472.588.836 1.031 1.091.443.256.969.384 1.577.384.403 0 .772-.057 1.108-.171.335-.113.622-.284.86-.511.239-.227.421-.506.546-.835l3.358.221a4.585 4.585 0 0 1-1.049 2.114c-.522.597-1.198 1.063-2.028 1.398-.824.329-1.775.494-2.855.494Zm12.008-7.824v7.568h-3.63v-13.091h3.46v2.31h.153a3.655 3.655 0 0 1 1.458-1.807c.682-.449 1.508-.673 2.48-.673.909 0 1.702.199 2.378.597.676.397 1.201.966 1.576 1.704.375.733.563 1.608.563 2.625v8.335h-3.631v-7.687c.006-.801-.199-1.426-.613-1.875-.415-.455-.986-.682-1.713-.682-.489 0-.921.105-1.296.315a2.2 2.2 0 0 0-.869.921c-.205.398-.31.878-.316 1.44Zm17.214 7.824c-1.341 0-2.494-.284-3.46-.852a5.765 5.765 0 0 1-2.216-2.387c-.511-1.017-.767-2.187-.767-3.511 0-1.341.259-2.517.776-3.528a5.757 5.757 0 0 1 2.224-2.378c.96-.574 2.102-.861 3.426-.861 1.142 0 2.142.207 3 .622.858.415 1.537.997 2.037 1.747.5.75.776 1.631.827 2.642h-3.426c-.097-.653-.353-1.179-.767-1.576-.409-.404-.946-.605-1.611-.605-.563 0-1.054.153-1.475.46-.414.301-.738.741-.971 1.321-.233.579-.35 1.281-.35 2.105 0 .835.114 1.545.341 2.131.233.585.56 1.031.98 1.338.421.306.912.46 1.475.46.415 0 .787-.085 1.116-.256.336-.17.611-.417.827-.741.222-.33.367-.725.435-1.185h3.426c-.057 1-.33 1.881-.818 2.642-.483.756-1.151 1.347-2.003 1.773-.852.426-1.861.639-3.026.639Zm14.086 0c-1.324 0-2.469-.281-3.434-.844a5.772 5.772 0 0 1-2.225-2.369c-.523-1.017-.784-2.196-.784-3.537 0-1.352.261-2.534.784-3.545a5.709 5.709 0 0 1 2.225-2.37c.965-.568 2.11-.852 3.434-.852 1.324 0 2.466.284 3.426.852a5.69 5.69 0 0 1 2.233 2.37c.523 1.011.784 2.193.784 3.545 0 1.341-.261 2.52-.784 3.537a5.752 5.752 0 0 1-2.233 2.369c-.96.563-2.102.844-3.426.844Zm.017-2.812c.603 0 1.105-.171 1.509-.512.403-.346.707-.818.912-1.415.21-.596.315-1.275.315-2.037 0-.761-.105-1.44-.315-2.036-.205-.597-.509-1.069-.912-1.415-.404-.347-.906-.52-1.509-.52-.608 0-1.119.173-1.534.52-.409.346-.719.818-.929 1.415-.204.596-.307 1.275-.307 2.036 0 .762.103 1.441.307 2.037.21.597.52 1.069.929 1.415.415.341.926.512 1.534.512Zm13.611 2.769a4.939 4.939 0 0 1-2.702-.767c-.801-.517-1.437-1.275-1.909-2.275-.466-1.006-.699-2.239-.699-3.699 0-1.5.242-2.747.725-3.742.483-1 1.125-1.747 1.926-2.241.807-.5 1.69-.75 2.651-.75.732 0 1.343.125 1.832.375.494.244.892.551 1.193.92.307.364.54.722.699 1.074h.111v-6.562h3.622v17.454h-3.58v-2.096h-.153a4.723 4.723 0 0 1-.724 1.082c-.307.352-.708.645-1.202.878-.489.233-1.085.349-1.79.349Zm1.151-2.889c.585 0 1.079-.159 1.483-.477.409-.324.721-.776.937-1.355.222-.58.332-1.259.332-2.037s-.108-1.455-.323-2.028c-.216-.574-.529-1.018-.938-1.33-.409-.313-.906-.469-1.491-.469-.597 0-1.1.162-1.509.486-.409.324-.719.773-.929 1.347-.21.573-.315 1.238-.315 1.994 0 .761.105 1.435.315 2.02.216.579.526 1.034.929 1.363.409.324.912.486 1.509.486Zm15.249 2.932c-1.347 0-2.506-.273-3.477-.818a5.601 5.601 0 0 1-2.233-2.335c-.523-1.012-.784-2.208-.784-3.588 0-1.347.261-2.529.784-3.546a5.789 5.789 0 0 1 2.207-2.378c.955-.568 2.074-.852 3.358-.852.864 0 1.668.139 2.412.418.75.272 1.403.684 1.96 1.235.563.552 1 1.245 1.313 2.08.312.83.468 1.801.468 2.915v.997h-11.054v-2.25h7.637c0-.523-.114-.986-.341-1.389a2.437 2.437 0 0 0-.946-.946c-.398-.233-.861-.35-1.389-.35-.551 0-1.04.128-1.466.384-.421.25-.75.588-.989 1.014a2.85 2.85 0 0 0-.366 1.406v2.139c0 .648.119 1.208.358 1.679.244.472.588.836 1.031 1.091.443.256.969.384 1.577.384.403 0 .772-.057 1.108-.171.335-.113.622-.284.86-.511.239-.227.421-.506.546-.835l3.358.221a4.585 4.585 0 0 1-1.049 2.114c-.522.597-1.198 1.063-2.028 1.398-.824.329-1.776.494-2.855.494Zm8.446-.256v-17.454h6.886c1.324 0 2.452.253 3.384.758.932.5 1.642 1.196 2.13 2.088.495.887.742 1.91.742 3.069s-.25 2.181-.75 3.068c-.5.886-1.224 1.576-2.173 2.071-.944.494-2.086.741-3.426.741h-4.39v-2.957h3.793c.71 0 1.295-.122 1.756-.367.466-.25.812-.593 1.039-1.031.233-.443.35-.952.35-1.525 0-.58-.117-1.086-.35-1.517a2.33 2.33 0 0 0-1.039-1.015c-.466-.244-1.057-.366-1.773-.366h-2.489v14.437h-3.69Zm18.852.248c-.835 0-1.579-.145-2.233-.435a3.601 3.601 0 0 1-1.551-1.304c-.375-.58-.562-1.301-.562-2.165 0-.727.133-1.338.4-1.832a3.238 3.238 0 0 1 1.091-1.193c.46-.302.983-.529 1.568-.682.591-.154 1.21-.262 1.858-.324.762-.08 1.375-.154 1.841-.222.466-.074.804-.182 1.014-.324.211-.142.316-.352.316-.63v-.051c0-.54-.171-.958-.512-1.253-.335-.296-.812-.443-1.432-.443-.653 0-1.173.144-1.559.434a1.996 1.996 0 0 0-.767 1.074l-3.358-.273a4.556 4.556 0 0 1 1.006-2.062c.5-.585 1.144-1.034 1.934-1.347.796-.318 1.716-.477 2.762-.477.727 0 1.423.085 2.088.256.67.17 1.264.434 1.781.792.523.358.935.818 1.236 1.381.301.557.451 1.224.451 2.003v8.829h-3.443v-1.815h-.102a3.69 3.69 0 0 1-.844 1.082 3.891 3.891 0 0 1-1.27.725c-.494.17-1.065.256-1.713.256Zm1.04-2.506c.534 0 1.006-.105 1.415-.315.409-.216.73-.506.963-.87.233-.363.349-.775.349-1.236v-1.389c-.113.074-.27.142-.469.205a8.299 8.299 0 0 1-.656.162c-.244.045-.488.088-.733.128l-.664.093a4.477 4.477 0 0 0-1.117.299 1.78 1.78 0 0 0-.741.554c-.177.227-.265.511-.265.852 0 .494.179.872.537 1.133.364.256.824.384 1.381.384Zm15.064 2.514c-1.341 0-2.494-.284-3.46-.852a5.759 5.759 0 0 1-2.216-2.387c-.512-1.017-.767-2.187-.767-3.511 0-1.341.258-2.517.775-3.528a5.76 5.76 0 0 1 2.225-2.378c.96-.574 2.102-.861 3.426-.861 1.142 0 2.142.207 3 .622.858.415 1.537.997 2.037 1.747.5.75.775 1.631.826 2.642h-3.426c-.096-.653-.352-1.179-.767-1.576-.409-.404-.946-.605-1.611-.605-.562 0-1.053.153-1.474.46-.415.301-.739.741-.972 1.321-.232.579-.349 1.281-.349 2.105 0 .835.114 1.545.341 2.131.233.585.56 1.031.98 1.338.421.306.912.46 1.474.46a2.39 2.39 0 0 0 1.117-.256c.335-.17.611-.417.827-.741.221-.33.366-.725.434-1.185h3.426c-.056 1-.329 1.881-.818 2.642-.483.756-1.15 1.347-2.003 1.773-.852.426-1.86.639-3.025.639Zm11.461-4.023.008-4.355h.529l4.193-4.969h4.168l-5.634 6.58h-.861l-2.403 2.744Zm-3.29 3.767v-17.454h3.631v17.454h-3.631Zm8.182 0-3.852-5.701 2.42-2.566 5.685 8.267h-4.253Zm11.214.256c-1.347 0-2.506-.273-3.478-.818a5.607 5.607 0 0 1-2.233-2.335c-.522-1.012-.784-2.208-.784-3.588 0-1.347.262-2.529.784-3.546a5.798 5.798 0 0 1 2.208-2.378c.954-.568 2.074-.852 3.358-.852.863 0 1.667.139 2.412.418.75.272 1.403.684 1.96 1.235.562.552 1 1.245 1.312 2.08.313.83.469 1.801.469 2.915v.997h-11.054v-2.25h7.637c0-.523-.114-.986-.341-1.389a2.444 2.444 0 0 0-.946-.946c-.398-.233-.861-.35-1.39-.35-.551 0-1.039.128-1.465.384-.421.25-.75.588-.989 1.014-.239.42-.361.889-.367 1.406v2.139c0 .648.12 1.208.358 1.679.245.472.588.836 1.032 1.091.443.256.968.384 1.576.384a3.42 3.42 0 0 0 1.108-.171 2.3 2.3 0 0 0 .861-.511c.239-.227.421-.506.546-.835l3.357.221a4.574 4.574 0 0 1-1.048 2.114c-.523.597-1.199 1.063-2.028 1.398-.824.329-1.776.494-2.855.494Zm13.201-.043c-.994 0-1.895-.255-2.701-.767-.801-.517-1.438-1.275-1.909-2.275-.466-1.006-.699-2.239-.699-3.699 0-1.5.241-2.747.724-3.742.483-1 1.125-1.747 1.926-2.241.807-.5 1.691-.75 2.651-.75.733 0 1.344.125 1.832.375.495.244.892.551 1.193.92.307.364.54.722.699 1.074h.111v-6.562h3.622v17.454h-3.579v-2.096h-.154c-.17.363-.412.724-.724 1.082-.307.352-.708.645-1.202.878-.489.233-1.085.349-1.79.349Zm1.151-2.889c.585 0 1.079-.159 1.483-.477.409-.324.721-.776.937-1.355.222-.58.333-1.259.333-2.037s-.108-1.455-.324-2.028c-.216-.574-.529-1.018-.938-1.33-.409-.313-.906-.469-1.491-.469-.597 0-1.1.162-1.509.486-.409.324-.718.773-.929 1.347-.21.573-.315 1.238-.315 1.994 0 .761.105 1.435.315 2.02.216.579.526 1.034.929 1.363.409.324.912.486 1.509.486Z"/></g><g filter="url(#g)"><g clip-path="url(#h)"><rect width="118" height="118" x="837.5" y="479" fill="#ECEEF0" rx="16"/><path stroke="#000" stroke-linecap="round" stroke-linejoin="round" stroke-width="2" d="M883 556h9M901 533.5h9M883 542.5h4.5V556M901 520h4.5v13.5M892 520h-9v13.5h9V520ZM910 542.5h-9V556h9v-13.5Z"/><path fill="#ED5F00" fill-opacity=".2" d="M808.5 447h179v182h-179z"/></g><rect width="178" height="178" x="807.5" y="449" stroke="#FA934E" stroke-width="4" rx="14"/><rect width="159" height="45" x="817" y="424" fill="#FA934E" rx="16"/><path fill="#F8F9FA" d="M842.517 455v-17.455h3.631v6.563h.111c.159-.352.389-.71.69-1.074a3.636 3.636 0 0 1 1.193-.92c.494-.25 1.108-.375 1.841-.375.955 0 1.835.25 2.642.75.807.494 1.452 1.241 1.935 2.241.483.994.724 2.242.724 3.742 0 1.46-.236 2.693-.707 3.698-.466 1-1.103 1.759-1.909 2.276-.802.511-1.699.767-2.694.767-.704 0-1.304-.116-1.798-.349a3.738 3.738 0 0 1-1.202-.878 4.442 4.442 0 0 1-.715-1.083h-.162V455h-3.58Zm3.554-6.545c0 .778.108 1.457.324 2.036.216.58.528 1.032.937 1.356.409.318.907.477 1.492.477.591 0 1.091-.162 1.5-.486.409-.329.719-.784.929-1.364.216-.585.324-1.258.324-2.019 0-.756-.105-1.421-.316-1.995-.21-.574-.52-1.023-.929-1.346-.409-.324-.912-.486-1.508-.486-.591 0-1.091.156-1.5.469-.404.312-.713.755-.929 1.329-.216.574-.324 1.25-.324 2.029Zm13.455 11.454c-.46 0-.892-.037-1.295-.111a4.714 4.714 0 0 1-.989-.264l.818-2.71c.427.131.81.202 1.151.213.347.011.645-.068.895-.239.256-.17.463-.46.622-.869l.213-.554-4.696-13.466h3.818l2.71 9.614h.137l2.736-9.614h3.843l-5.088 14.506a6.083 6.083 0 0 1-.997 1.841c-.415.528-.94.934-1.577 1.218-.636.29-1.403.435-2.301.435Zm18.784-18v2.727h-7.883v-2.727h7.883Zm-6.093-3.136h3.63v12.204c0 .335.051.597.154.784.102.182.244.31.426.384.187.074.403.111.648.111.17 0 .34-.015.511-.043l.392-.077.571 2.702c-.182.057-.437.122-.767.196-.33.08-.73.128-1.202.145-.875.034-1.642-.082-2.301-.349-.653-.268-1.162-.682-1.525-1.245-.364-.562-.543-1.273-.537-2.13v-12.682Zm14.284 16.483c-1.347 0-2.506-.273-3.478-.818a5.616 5.616 0 0 1-2.233-2.336c-.522-1.011-.784-2.207-.784-3.588 0-1.346.262-2.528.784-3.545a5.798 5.798 0 0 1 2.208-2.378c.954-.568 2.074-.852 3.358-.852.863 0 1.667.139 2.412.417.75.273 1.403.685 1.96 1.236.562.551 1 1.244 1.312 2.08.313.829.469 1.801.469 2.914v.998h-11.054v-2.25h7.637c0-.523-.114-.986-.341-1.39a2.457 2.457 0 0 0-.946-.946c-.398-.233-.861-.349-1.39-.349-.551 0-1.039.128-1.465.383-.421.25-.75.588-.989 1.015-.239.42-.361.889-.367 1.406v2.139c0 .648.12 1.207.358 1.679a2.62 2.62 0 0 0 1.032 1.091c.443.256.968.383 1.576.383a3.42 3.42 0 0 0 1.108-.17c.336-.114.622-.284.861-.511.239-.228.421-.506.546-.836l3.358.222a4.59 4.59 0 0 1-1.049 2.114c-.522.596-1.199 1.062-2.028 1.397-.824.33-1.776.495-2.855.495Zm18.756-.043a4.947 4.947 0 0 1-2.702-.767c-.801-.517-1.437-1.276-1.909-2.276-.466-1.005-.699-2.238-.699-3.698 0-1.5.242-2.748.725-3.742.483-1 1.125-1.747 1.926-2.241.807-.5 1.69-.75 2.651-.75.733 0 1.343.125 1.832.375.494.244.892.551 1.193.92.307.364.54.722.699 1.074h.111v-6.563h3.622V455h-3.58v-2.097h-.153c-.17.364-.412.725-.724 1.083-.307.352-.708.645-1.202.878-.489.233-1.085.349-1.79.349Zm1.151-2.889c.585 0 1.079-.159 1.483-.477.409-.324.721-.776.937-1.356.222-.579.333-1.258.333-2.036 0-.779-.108-1.455-.324-2.029-.216-.574-.529-1.017-.938-1.329-.409-.313-.906-.469-1.491-.469-.597 0-1.1.162-1.509.486-.409.323-.719.772-.929 1.346-.21.574-.315 1.239-.315 1.995 0 .761.105 1.434.315 2.019.216.58.526 1.035.929 1.364.409.324.912.486 1.509.486Zm13.016 2.923c-.835 0-1.58-.145-2.233-.435a3.6 3.6 0 0 1-1.551-1.303c-.375-.58-.563-1.302-.563-2.165 0-.728.134-1.338.401-1.833a3.246 3.246 0 0 1 1.091-1.193 5.31 5.31 0 0 1 1.568-.682c.591-.153 1.21-.261 1.858-.324a46.616 46.616 0 0 0 1.841-.221c.466-.074.804-.182 1.014-.324.21-.142.315-.352.315-.631v-.051c0-.54-.17-.957-.511-1.253-.335-.295-.812-.443-1.432-.443-.653 0-1.173.145-1.559.435a1.996 1.996 0 0 0-.767 1.074l-3.358-.273a4.563 4.563 0 0 1 1.005-2.063c.5-.585 1.145-1.034 1.935-1.346.795-.318 1.716-.477 2.761-.477.728 0 1.424.085 2.088.255a5.472 5.472 0 0 1 1.782.793c.522.358.934.818 1.235 1.381.302.556.452 1.224.452 2.002V455h-3.443v-1.815h-.102c-.211.409-.492.77-.844 1.082a3.9 3.9 0 0 1-1.27.724c-.494.171-1.065.256-1.713.256Zm1.04-2.506c.534 0 1.005-.105 1.415-.315.409-.216.73-.506.963-.869.233-.364.349-.776.349-1.236v-1.389c-.114.074-.27.142-.469.204a8.41 8.41 0 0 1-.656.162c-.244.046-.489.088-.733.128l-.665.094a4.481 4.481 0 0 0-1.116.298 1.799 1.799 0 0 0-.742.554c-.176.227-.264.512-.264.852 0 .495.179.873.537 1.134.364.256.824.383 1.381.383Zm16.112-10.832v2.727h-7.884v-2.727h7.884Zm-6.094-3.136h3.631v12.204c0 .335.051.597.153.784.103.182.245.31.426.384.188.074.404.111.648.111.171 0 .341-.015.512-.043l.392-.077.571 2.702c-.182.057-.438.122-.767.196-.33.08-.731.128-1.202.145-.875.034-1.642-.082-2.301-.349a3.215 3.215 0 0 1-1.526-1.245c-.363-.562-.542-1.273-.537-2.13v-12.682Zm12.192 16.474c-.835 0-1.58-.145-2.233-.435a3.6 3.6 0 0 1-1.551-1.303c-.375-.58-.563-1.302-.563-2.165 0-.728.134-1.338.401-1.833a3.246 3.246 0 0 1 1.091-1.193 5.31 5.31 0 0 1 1.568-.682c.591-.153 1.21-.261 1.858-.324a46.616 46.616 0 0 0 1.841-.221c.466-.074.804-.182 1.014-.324.21-.142.315-.352.315-.631v-.051c0-.54-.17-.957-.511-1.253-.335-.295-.812-.443-1.432-.443-.653 0-1.173.145-1.559.435a1.996 1.996 0 0 0-.767 1.074l-3.358-.273a4.563 4.563 0 0 1 1.005-2.063c.5-.585 1.145-1.034 1.935-1.346.795-.318 1.716-.477 2.761-.477.728 0 1.424.085 2.088.255a5.472 5.472 0 0 1 1.782.793c.522.358.934.818 1.235 1.381.302.556.452 1.224.452 2.002V455h-3.443v-1.815h-.102c-.211.409-.492.77-.844 1.082a3.9 3.9 0 0 1-1.27.724c-.494.171-1.065.256-1.713.256Zm1.04-2.506c.534 0 1.005-.105 1.415-.315.409-.216.73-.506.963-.869.233-.364.349-.776.349-1.236v-1.389c-.114.074-.27.142-.469.204a8.41 8.41 0 0 1-.656.162c-.244.046-.489.088-.733.128l-.665.094a4.481 4.481 0 0 0-1.116.298 1.799 1.799 0 0 0-.742.554c-.176.227-.264.512-.264.852 0 .495.179.873.537 1.134.364.256.824.383 1.381.383Z"/></g><g filter="url(#i)"><circle cx="1173.5" cy="538" r="62" fill="#E9F9EE" stroke="#5BB98C" stroke-width="4"/><path fill="#7E868C" fill-rule="evenodd" d="m1172.13 503.272-21.1 33.587c-.25.206-.42.485-.5.791l-.65 1.033 23.62 13.669 23.62-13.669-22.25-35.411c-.07-.16-.16-.306-.27-.432l-1.1-1.745-1.1 1.745c-.11.126-.2.272-.27.432Zm-.11 5.722-15.97 25.429 15.97-7.607v-17.822Zm0 21.092-17.06 8.124 17.06 9.876v-18Zm2.96 18V530.12l16.78 8.255-16.78 9.711Zm0-21.256v-17.836l16.22 25.816-16.22-7.98Zm-1.65 29.523-23.45-13.569 23.62 32.121 23.62-32.121-23.45 13.569c-.05-.007-.11-.01-.17-.01-.06 0-.12.003-.17.01Zm-1.31 2.656-11.39-6.596 11.39 15.5v-8.904Zm2.96 8.904 11.39-15.5-11.39 6.596v8.904Z" clip-rule="evenodd"/></g><path fill="#8DA4EF" d="m797.5 538-20-11.547v23.094l20-11.547Zm-114 0v-8h-4v8h4Zm-4 0v8h4v-8h-4Zm2 2h98v-4h-98v4Z"/><path fill="#FA934E" d="m1103.5 538-20-11.547v23.094l20-11.547Zm-114 0v-8h-4v8h4Zm-4 0v8h4v-8h-4Zm2 2h58v-4h-58v4Zm58 0h40v-4h-40v4Z"/><g filter="url(#j)"><path fill="#FBFCFD" d="M1166.43 438.929a9.991 9.991 0 0 0 0 14.142l1.09 1.094a6.736 6.736 0 0 1 1.98 4.773V460a4 4 0 1 0 8 0v-1.062c0-1.79.71-3.507 1.98-4.773l1.09-1.094a9.991 9.991 0 0 0 0-14.142c-3.9-3.905-10.24-3.905-14.14 0Z"/><path stroke="#EBBC00" stroke-linecap="round" stroke-linejoin="round" stroke-width="4" d="M1168.83 456h9.34m-4.67-28v2m12.73 3.272-1.42 1.414M1191.5 446h-2m-32 0h-2m6.69-11.314-1.42-1.414m5.66 19.799a9.991 9.991 0 0 1 0-14.142c3.9-3.905 10.24-3.905 14.14 0a9.991 9.991 0 0 1 0 14.142l-1.09 1.094a6.736 6.736 0 0 0-1.98 4.773V460a4 4 0 1 1-8 0v-1.062c0-1.79-.71-3.507-1.98-4.773l-1.09-1.094Z"/></g><defs><filter id="a" width="347.333" height="234.333" x="349.333" y="118.833" color-interpolation-filters="sRGB" filterUnits="userSpaceOnUse"><feFlood flood-opacity="0" result="BackgroundImageFix"/><feColorMatrix in="SourceAlpha" result="hardAlpha" values="0 0 0 0 0 0 0 0 0 0 0 0 0 0 0 0 0 0 127 0"/><feOffset dy="10"/><feGaussianBlur stdDeviation="7.5"/><feComposite in2="hardAlpha" operator="out"/><feColorMatrix values="0 0 0 0 0.0823529 0 0 0 0 0.0901961 0 0 0 0 0.0941176 0 0 0 0.1 0"/><feBlend in2="BackgroundImageFix" result="effect1_dropShadow_30_204"/><feColorMatrix in="SourceAlpha" result="hardAlpha" values="0 0 0 0 0 0 0 0 0 0 0 0 0 0 0 0 0 0 127 0"/><feOffset dy="4"/><feGaussianBlur stdDeviation="3"/><feComposite in2="hardAlpha" operator="out"/><feColorMatrix values="0 0 0 0 0.0823529 0 0 0 0 0.0901961 0 0 0 0 0.0941176 0 0 0 0.1 0"/><feBlend in2="effect1_dropShadow_30_204" result="effect2_dropShadow_30_204"/><feBlend in="SourceGraphic" in2="effect2_dropShadow_30_204" result="shape"/></filter><filter id="c" width="158" height="158" x="1094.5" y="169" color-interpolation-filters="sRGB" filterUnits="userSpaceOnUse"><feFlood flood-opacity="0" result="BackgroundImageFix"/><feColorMatrix in="SourceAlpha" result="hardAlpha" values="0 0 0 0 0 0 0 0 0 0 0 0 0 0 0 0 0 0 127 0"/><feOffset dy="10"/><feGaussianBlur stdDeviation="7.5"/><feComposite in2="hardAlpha" operator="out"/><feColorMatrix values="0 0 0 0 0.0823529 0 0 0 0 0.0901961 0 0 0 0 0.0941176 0 0 0 0.1 0"/><feBlend in2="BackgroundImageFix" result="effect1_dropShadow_30_204"/><feColorMatrix in="SourceAlpha" result="hardAlpha" values="0 0 0 0 0 0 0 0 0 0 0 0 0 0 0 0 0 0 127 0"/><feOffset dy="4"/><feGaussianBlur stdDeviation="3"/><feComposite in2="hardAlpha" operator="out"/><feColorMatrix values="0 0 0 0 0.0823529 0 0 0 0 0.0901961 0 0 0 0 0.0941176 0 0 0 0.1 0"/><feBlend in2="effect1_dropShadow_30_204" result="effect2_dropShadow_30_204"/><feBlend in="SourceGraphic" in2="effect2_dropShadow_30_204" result="shape"/></filter><filter id="d" width="74" height="74" x="1136.5" y="119" color-interpolation-filters="sRGB" filterUnits="userSpaceOnUse"><feFlood flood-opacity="0" result="BackgroundImageFix"/><feColorMatrix in="SourceAlpha" result="hardAlpha" values="0 0 0 0 0 0 0 0 0 0 0 0 0 0 0 0 0 0 127 0"/><feOffset dy="10"/><feGaussianBlur stdDeviation="7.5"/><feComposite in2="hardAlpha" operator="out"/><feColorMatrix values="0 0 0 0 0.0823529 0 0 0 0 0.0901961 0 0 0 0 0.0941176 0 0 0 0.1 0"/><feBlend in2="BackgroundImageFix" result="effect1_dropShadow_30_204"/><feColorMatrix in="SourceAlpha" result="hardAlpha" values="0 0 0 0 0 0 0 0 0 0 0 0 0 0 0 0 0 0 127 0"/><feOffset dy="4"/><feGaussianBlur stdDeviation="3"/><feComposite in2="hardAlpha" operator="out"/><feColorMatrix values="0 0 0 0 0.0823529 0 0 0 0 0.0901961 0 0 0 0 0.0941176 0 0 0 0.1 0"/><feBlend in2="effect1_dropShadow_30_204" result="effect2_dropShadow_30_204"/><feBlend in="SourceGraphic" in2="effect2_dropShadow_30_204" result="shape"/></filter><filter id="e" width="347.333" height="234.333" x="349.333" y="419.333" color-interpolation-filters="sRGB" filterUnits="userSpaceOnUse"><feFlood flood-opacity="0" result="BackgroundImageFix"/><feColorMatrix in="SourceAlpha" result="hardAlpha" values="0 0 0 0 0 0 0 0 0 0 0 0 0 0 0 0 0 0 127 0"/><feOffset dy="10"/><feGaussianBlur stdDeviation="7.5"/><feComposite in2="hardAlpha" operator="out"/><feColorMatrix values="0 0 0 0 0.0823529 0 0 0 0 0.0901961 0 0 0 0 0.0941176 0 0 0 0.1 0"/><feBlend in2="BackgroundImageFix" result="effect1_dropShadow_30_204"/><feColorMatrix in="SourceAlpha" result="hardAlpha" values="0 0 0 0 0 0 0 0 0 0 0 0 0 0 0 0 0 0 127 0"/><feOffset dy="4"/><feGaussianBlur stdDeviation="3"/><feComposite in2="hardAlpha" operator="out"/><feColorMatrix values="0 0 0 0 0.0823529 0 0 0 0 0.0901961 0 0 0 0 0.0941176 0 0 0 0.1 0"/><feBlend in2="effect1_dropShadow_30_204" result="effect2_dropShadow_30_204"/><feBlend in="SourceGraphic" in2="effect2_dropShadow_30_204" result="shape"/></filter><filter id="g" width="212" height="235" x="790.5" y="419" color-interpolation-filters="sRGB" filterUnits="userSpaceOnUse"><feFlood flood-opacity="0" result="BackgroundImageFix"/><feColorMatrix in="SourceAlpha" result="hardAlpha" values="0 0 0 0 0 0 0 0 0 0 0 0 0 0 0 0 0 0 127 0"/><feOffset dy="10"/><feGaussianBlur stdDeviation="7.5"/><feComposite in2="hardAlpha" operator="out"/><feColorMatrix values="0 0 0 0 0.0823529 0 0 0 0 0.0901961 0 0 0 0 0.0941176 0 0 0 0.1 0"/><feBlend in2="BackgroundImageFix" result="effect1_dropShadow_30_204"/><feColorMatrix in="SourceAlpha" result="hardAlpha" values="0 0 0 0 0 0 0 0 0 0 0 0 0 0 0 0 0 0 127 0"/><feOffset dy="4"/><feGaussianBlur stdDeviation="3"/><feComposite in2="hardAlpha" operator="out"/><feColorMatrix values="0 0 0 0 0.0823529 0 0 0 0 0.0901961 0 0 0 0 0.0941176 0 0 0 0.1 0"/><feBlend in2="effect1_dropShadow_30_204" result="effect2_dropShadow_30_204"/><feBlend in="SourceGraphic" in2="effect2_dropShadow_30_204" result="shape"/></filter><filter id="i" width="158" height="158" x="1094.5" y="469" color-interpolation-filters="sRGB" filterUnits="userSpaceOnUse"><feFlood flood-opacity="0" result="BackgroundImageFix"/><feColorMatrix in="SourceAlpha" result="hardAlpha" values="0 0 0 0 0 0 0 0 0 0 0 0 0 0 0 0 0 0 127 0"/><feOffset dy="10"/><feGaussianBlur stdDeviation="7.5"/><feComposite in2="hardAlpha" operator="out"/><feColorMatrix values="0 0 0 0 0.0823529 0 0 0 0 0.0901961 0 0 0 0 0.0941176 0 0 0 0.1 0"/><feBlend in2="BackgroundImageFix" result="effect1_dropShadow_30_204"/><feColorMatrix in="SourceAlpha" result="hardAlpha" values="0 0 0 0 0 0 0 0 0 0 0 0 0 0 0 0 0 0 127 0"/><feOffset dy="4"/><feGaussianBlur stdDeviation="3"/><feComposite in2="hardAlpha" operator="out"/><feColorMatrix values="0 0 0 0 0.0823529 0 0 0 0 0.0901961 0 0 0 0 0.0941176 0 0 0 0.1 0"/><feBlend in2="effect1_dropShadow_30_204" result="effect2_dropShadow_30_204"/><feBlend in="SourceGraphic" in2="effect2_dropShadow_30_204" result="shape"/></filter><filter id="j" width="74" height="74" x="1136.5" y="419" color-interpolation-filters="sRGB" filterUnits="userSpaceOnUse"><feFlood flood-opacity="0" result="BackgroundImageFix"/><feColorMatrix in="SourceAlpha" result="hardAlpha" values="0 0 0 0 0 0 0 0 0 0 0 0 0 0 0 0 0 0 127 0"/><feOffset dy="10"/><feGaussianBlur stdDeviation="7.5"/><feComposite in2="hardAlpha" operator="out"/><feColorMatrix values="0 0 0 0 0.0823529 0 0 0 0 0.0901961 0 0 0 0 0.0941176 0 0 0 0.1 0"/><feBlend in2="BackgroundImageFix" result="effect1_dropShadow_30_204"/><feColorMatrix in="SourceAlpha" result="hardAlpha" values="0 0 0 0 0 0 0 0 0 0 0 0 0 0 0 0 0 0 127 0"/><feOffset dy="4"/><feGaussianBlur stdDeviation="3"/><feComposite in2="hardAlpha" operator="out"/><feColorMatrix values="0 0 0 0 0.0823529 0 0 0 0 0.0901961 0 0 0 0 0.0941176 0 0 0 0.1 0"/><feBlend in2="effect1_dropShadow_30_204" result="effect2_dropShadow_30_204"/><feBlend in="SourceGraphic" in2="effect2_dropShadow_30_204" result="shape"/></filter><clipPath id="b"><rect width="317.333" height="181.333" x="364.333" y="146.833" fill="#fff" rx="16"/></clipPath><clipPath id="f"><rect width="317.333" height="181.333" x="364.333" y="447.333" fill="#fff" rx="16"/></clipPath><clipPath id="h"><rect width="182" height="182" x="805.5" y="447" fill="#fff" rx="16"/></clipPath></defs></svg>