<svg xmlns="http://www.w3.org/2000/svg" width="1600" height="553" fill="none"><path fill="#F8F9FA" d="M0 0h1600v553H0z"/><g filter="url(#a)"><rect width="118" height="118" x="423" y="279" fill="#ECEEF0" rx="16"/><path stroke="#000" stroke-linecap="round" stroke-linejoin="round" stroke-width="2" d="M468.5 356h9M486.5 333.5h9M468.5 342.5h4.5V356M486.5 320h4.5v13.5M477.5 320h-9v13.5h9V320ZM495.5 342.5h-9V356h9v-13.5Z"/><path fill="#ED5F00" fill-opacity=".2" d="M394 247h179v182H394z"/><rect width="178" height="178" x="393" y="249" stroke="#FA934E" stroke-width="4" rx="14"/><rect width="159" height="45" x="402.5" y="224" fill="#FA934E" rx="16"/><path fill="#F8F9FA" d="M428.017 255v-17.455h3.631v6.563h.111c.159-.352.389-.71.69-1.074a3.636 3.636 0 0 1 1.193-.92c.494-.25 1.108-.375 1.841-.375.955 0 1.835.25 2.642.75.807.494 1.452 1.241 1.935 2.241.483.994.724 2.242.724 3.742 0 1.46-.236 2.693-.707 3.698-.466 1-1.103 1.759-1.909 2.276-.802.511-1.699.767-2.694.767-.704 0-1.304-.116-1.798-.349a3.738 3.738 0 0 1-1.202-.878 4.442 4.442 0 0 1-.715-1.083h-.162V255h-3.58Zm3.554-6.545c0 .778.108 1.457.324 2.036.216.58.528 1.032.937 1.356.409.318.907.477 1.492.477.591 0 1.091-.162 1.5-.486.409-.329.719-.784.929-1.364.216-.585.324-1.258.324-2.019 0-.756-.105-1.421-.316-1.995-.21-.574-.52-1.023-.929-1.346-.409-.324-.912-.486-1.508-.486-.591 0-1.091.156-1.5.469-.404.312-.713.755-.929 1.329-.216.574-.324 1.25-.324 2.029Zm13.455 11.454c-.46 0-.892-.037-1.295-.111a4.714 4.714 0 0 1-.989-.264l.818-2.71c.427.131.81.202 1.151.213.347.011.645-.068.895-.239.256-.17.463-.46.622-.869l.213-.554-4.696-13.466h3.818l2.71 9.614h.137l2.736-9.614h3.843l-5.088 14.506a6.083 6.083 0 0 1-.997 1.841c-.415.528-.94.934-1.577 1.218-.636.29-1.403.435-2.301.435Zm18.784-18v2.727h-7.883v-2.727h7.883Zm-6.093-3.136h3.63v12.204c0 .335.051.597.154.784.102.182.244.31.426.384.187.074.403.111.648.111.17 0 .34-.015.511-.043l.392-.077.571 2.702c-.182.057-.437.122-.767.196-.33.08-.73.128-1.202.145-.875.034-1.642-.082-2.301-.349-.653-.268-1.162-.682-1.525-1.245-.364-.562-.543-1.273-.537-2.13v-12.682Zm14.284 16.483c-1.347 0-2.506-.273-3.478-.818a5.616 5.616 0 0 1-2.233-2.336c-.522-1.011-.784-2.207-.784-3.588 0-1.346.262-2.528.784-3.545a5.798 5.798 0 0 1 2.208-2.378c.954-.568 2.074-.852 3.358-.852.863 0 1.667.139 2.412.417.75.273 1.403.685 1.96 1.236.562.551 1 1.244 1.312 2.08.313.829.469 1.801.469 2.914v.998h-11.054v-2.25h7.637c0-.523-.114-.986-.341-1.39a2.457 2.457 0 0 0-.946-.946c-.398-.233-.861-.349-1.39-.349-.551 0-1.039.128-1.465.383-.421.25-.75.588-.989 1.015-.239.42-.361.889-.367 1.406v2.139c0 .648.12 1.207.358 1.679a2.62 2.62 0 0 0 1.032 1.091c.443.256.968.383 1.576.383a3.42 3.42 0 0 0 1.108-.17c.336-.114.622-.284.861-.511.239-.228.421-.506.546-.836l3.358.222a4.59 4.59 0 0 1-1.049 2.114c-.522.596-1.199 1.062-2.028 1.397-.824.33-1.776.495-2.855.495Zm18.756-.043a4.947 4.947 0 0 1-2.702-.767c-.801-.517-1.437-1.276-1.909-2.276-.466-1.005-.699-2.238-.699-3.698 0-1.5.242-2.748.725-3.742.483-1 1.125-1.747 1.926-2.241.807-.5 1.69-.75 2.651-.75.733 0 1.343.125 1.832.375.494.244.892.551 1.193.92.307.364.54.722.699 1.074h.111v-6.563h3.622V255h-3.58v-2.097h-.153c-.17.364-.412.725-.724 1.083-.307.352-.708.645-1.202.878-.489.233-1.085.349-1.79.349Zm1.151-2.889c.585 0 1.079-.159 1.483-.477.409-.324.721-.776.937-1.356.222-.579.333-1.258.333-2.036 0-.779-.108-1.455-.324-2.029-.216-.574-.529-1.017-.938-1.329-.409-.313-.906-.469-1.491-.469-.597 0-1.1.162-1.509.486-.409.323-.719.772-.929 1.346-.21.574-.315 1.239-.315 1.995 0 .761.105 1.434.315 2.019.216.58.526 1.035.929 1.364.409.324.912.486 1.509.486Zm13.016 2.923c-.835 0-1.58-.145-2.233-.435a3.6 3.6 0 0 1-1.551-1.303c-.375-.58-.563-1.302-.563-2.165 0-.728.134-1.338.401-1.833a3.246 3.246 0 0 1 1.091-1.193 5.31 5.31 0 0 1 1.568-.682c.591-.153 1.21-.261 1.858-.324a46.616 46.616 0 0 0 1.841-.221c.466-.074.804-.182 1.014-.324.21-.142.315-.352.315-.631v-.051c0-.54-.17-.957-.511-1.253-.335-.295-.812-.443-1.432-.443-.653 0-1.173.145-1.559.435a1.996 1.996 0 0 0-.767 1.074l-3.358-.273a4.563 4.563 0 0 1 1.005-2.063c.5-.585 1.145-1.034 1.935-1.346.795-.318 1.716-.477 2.761-.477.728 0 1.424.085 2.088.255a5.472 5.472 0 0 1 1.782.793c.522.358.934.818 1.235 1.381.302.556.452 1.224.452 2.002V255h-3.443v-1.815h-.102c-.211.409-.492.77-.844 1.082a3.9 3.9 0 0 1-1.27.724c-.494.171-1.065.256-1.713.256Zm1.04-2.506c.534 0 1.005-.105 1.415-.315.409-.216.73-.506.963-.869.233-.364.349-.776.349-1.236v-1.389c-.114.074-.27.142-.469.204a8.41 8.41 0 0 1-.656.162c-.244.046-.489.088-.733.128l-.665.094a4.481 4.481 0 0 0-1.116.298 1.799 1.799 0 0 0-.742.554c-.176.227-.264.512-.264.852 0 .495.179.873.537 1.134.364.256.824.383 1.381.383Zm16.112-10.832v2.727h-7.884v-2.727h7.884Zm-6.094-3.136h3.631v12.204c0 .335.051.597.153.784.103.182.245.31.426.384.188.074.404.111.648.111.171 0 .341-.015.512-.043l.392-.077.571 2.702c-.182.057-.438.122-.767.196-.33.08-.731.128-1.202.145-.875.034-1.642-.082-2.301-.349a3.215 3.215 0 0 1-1.526-1.245c-.363-.562-.542-1.273-.537-2.13v-12.682Zm12.192 16.474c-.835 0-1.58-.145-2.233-.435a3.6 3.6 0 0 1-1.551-1.303c-.375-.58-.563-1.302-.563-2.165 0-.728.134-1.338.401-1.833a3.246 3.246 0 0 1 1.091-1.193 5.31 5.31 0 0 1 1.568-.682c.591-.153 1.21-.261 1.858-.324a46.616 46.616 0 0 0 1.841-.221c.466-.074.804-.182 1.014-.324.21-.142.315-.352.315-.631v-.051c0-.54-.17-.957-.511-1.253-.335-.295-.812-.443-1.432-.443-.653 0-1.173.145-1.559.435a1.996 1.996 0 0 0-.767 1.074l-3.358-.273a4.563 4.563 0 0 1 1.005-2.063c.5-.585 1.145-1.034 1.935-1.346.795-.318 1.716-.477 2.761-.477.728 0 1.424.085 2.088.255a5.472 5.472 0 0 1 1.782.793c.522.358.934.818 1.235 1.381.302.556.452 1.224.452 2.002V255h-3.443v-1.815h-.102c-.211.409-.492.77-.844 1.082a3.9 3.9 0 0 1-1.27.724c-.494.171-1.065.256-1.713.256Zm1.04-2.506c.534 0 1.005-.105 1.415-.315.409-.216.73-.506.963-.869.233-.364.349-.776.349-1.236v-1.389c-.114.074-.27.142-.469.204a8.41 8.41 0 0 1-.656.162c-.244.046-.489.088-.733.128l-.665.094a4.481 4.481 0 0 0-1.116.298 1.799 1.799 0 0 0-.742.554c-.176.227-.264.512-.264.852 0 .495.179.873.537 1.134.364.256.824.383 1.381.383Z"/></g><g filter="url(#b)"><rect width="118" height="118" x="743" y="279" fill="#ECEEF0" rx="16"/><path stroke="#000" stroke-linecap="round" stroke-linejoin="round" stroke-width="2" d="M788.5 356h9M806.5 333.5h9M788.5 342.5h4.5V356M806.5 320h4.5v13.5M797.5 320h-9v13.5h9V320ZM815.5 342.5h-9V356h9v-13.5Z"/><path fill="#3A5CCC" fill-opacity=".2" d="M700 247h203v182H700z"/><rect width="202" height="178" x="699" y="249" stroke="#8DA4EF" stroke-width="4" rx="14"/><rect width="181" height="45" x="709.5" y="224" fill="#8DA4EF" rx="16"/><path fill="#F8F9FA" d="M735.017 255v-17.455h3.69v7.696h.231l6.281-7.696h4.423l-6.477 7.816 6.554 9.639h-4.415l-4.781-7.176-1.816 2.216V255h-3.69Zm21.484.256c-1.347 0-2.506-.273-3.478-.818a5.616 5.616 0 0 1-2.233-2.336c-.522-1.011-.784-2.207-.784-3.588 0-1.346.262-2.528.784-3.545a5.798 5.798 0 0 1 2.208-2.378c.954-.568 2.074-.852 3.358-.852.863 0 1.667.139 2.412.417.75.273 1.403.685 1.96 1.236.562.551 1 1.244 1.312 2.08.313.829.469 1.801.469 2.914v.998h-11.054v-2.25h7.637c0-.523-.114-.986-.341-1.39a2.457 2.457 0 0 0-.946-.946c-.398-.233-.861-.349-1.39-.349-.551 0-1.039.128-1.465.383-.421.25-.75.588-.989 1.015-.239.42-.361.889-.367 1.406v2.139c0 .648.12 1.207.358 1.679a2.62 2.62 0 0 0 1.032 1.091c.443.256.968.383 1.576.383a3.42 3.42 0 0 0 1.108-.17c.336-.114.622-.284.861-.511.239-.228.421-.506.546-.836l3.358.222a4.59 4.59 0 0 1-1.049 2.114c-.522.596-1.199 1.062-2.028 1.397-.824.33-1.776.495-2.855.495Zm14.292 0c-1.341 0-2.494-.284-3.46-.853a5.757 5.757 0 0 1-2.216-2.386c-.511-1.017-.767-2.187-.767-3.511 0-1.341.259-2.517.776-3.529a5.763 5.763 0 0 1 2.224-2.378c.96-.573 2.102-.86 3.426-.86 1.142 0 2.142.207 3 .622.858.415 1.537.997 2.037 1.747.5.75.776 1.631.827 2.642h-3.426c-.097-.653-.352-1.179-.767-1.577-.409-.403-.946-.605-1.611-.605-.563 0-1.054.154-1.474.46-.415.302-.739.742-.972 1.321-.233.58-.35 1.282-.35 2.106 0 .835.114 1.545.341 2.13.233.585.56 1.031.981 1.338.42.307.911.461 1.474.461.415 0 .787-.086 1.116-.256.336-.171.611-.418.827-.742.222-.329.367-.724.435-1.184h3.426c-.057 1-.33 1.88-.818 2.642-.483.755-1.151 1.346-2.003 1.772-.852.427-1.861.64-3.026.64Zm14.086 0c-1.341 0-2.494-.284-3.46-.853a5.757 5.757 0 0 1-2.216-2.386c-.511-1.017-.767-2.187-.767-3.511 0-1.341.259-2.517.776-3.529a5.763 5.763 0 0 1 2.224-2.378c.96-.573 2.102-.86 3.426-.86 1.142 0 2.142.207 3 .622.858.415 1.537.997 2.037 1.747.5.75.776 1.631.827 2.642H787.3c-.097-.653-.353-1.179-.767-1.577-.409-.403-.946-.605-1.611-.605-.563 0-1.054.154-1.475.46-.414.302-.738.742-.971 1.321-.233.58-.35 1.282-.35 2.106 0 .835.114 1.545.341 2.13.233.585.56 1.031.98 1.338.421.307.912.461 1.475.461.415 0 .787-.086 1.116-.256.336-.171.611-.418.827-.742.222-.329.367-.724.435-1.184h3.426c-.057 1-.33 1.88-.818 2.642-.483.755-1.151 1.346-2.003 1.772-.852.427-1.861.64-3.026.64Zm11.904-.009c-.835 0-1.579-.145-2.233-.435a3.6 3.6 0 0 1-1.551-1.303c-.375-.58-.562-1.302-.562-2.165 0-.728.133-1.338.4-1.833a3.246 3.246 0 0 1 1.091-1.193 5.31 5.31 0 0 1 1.568-.682 12.08 12.08 0 0 1 1.858-.324 46.384 46.384 0 0 0 1.841-.221c.466-.074.804-.182 1.015-.324.21-.142.315-.352.315-.631v-.051c0-.54-.171-.957-.512-1.253-.335-.295-.812-.443-1.431-.443-.654 0-1.174.145-1.56.435a2.001 2.001 0 0 0-.767 1.074l-3.358-.273a4.565 4.565 0 0 1 1.006-2.063c.5-.585 1.145-1.034 1.934-1.346.796-.318 1.716-.477 2.762-.477a8.4 8.4 0 0 1 2.088.255c.67.171 1.264.435 1.781.793.523.358.935.818 1.236 1.381.301.556.452 1.224.452 2.002V255h-3.444v-1.815h-.102c-.21.409-.491.77-.844 1.082a3.89 3.89 0 0 1-1.27.724c-.494.171-1.065.256-1.713.256Zm1.04-2.506c.534 0 1.006-.105 1.415-.315.409-.216.73-.506.963-.869.233-.364.349-.776.349-1.236v-1.389a1.901 1.901 0 0 1-.468.204 8.442 8.442 0 0 1-.657.162c-.244.046-.488.088-.733.128l-.664.094a4.49 4.49 0 0 0-1.117.298 1.79 1.79 0 0 0-.741.554c-.176.227-.264.512-.264.852 0 .495.179.873.536 1.134.364.256.824.383 1.381.383Zm12.439-1.508.009-4.355h.528l4.193-4.969h4.168l-5.634 6.58h-.861l-2.403 2.744Zm-3.29 3.767v-17.455h3.631V255h-3.631Zm8.182 0-3.852-5.702 2.42-2.565 5.685 8.267h-4.253Zm5.753 0v-2.659l6.213-5.753c.528-.511.972-.972 1.33-1.381.363-.409.639-.809.826-1.201.188-.398.282-.827.282-1.287 0-.512-.117-.952-.35-1.321a2.297 2.297 0 0 0-.954-.861 2.99 2.99 0 0 0-1.373-.307c-.534 0-1 .108-1.397.324a2.235 2.235 0 0 0-.921.929c-.216.403-.324.883-.324 1.44h-3.502c0-1.142.258-2.133.775-2.974.517-.841 1.242-1.492 2.173-1.952.932-.46 2.006-.69 3.222-.69 1.25 0 2.338.221 3.264.665.932.437 1.656 1.045 2.173 1.823.518.779.776 1.671.776 2.677a5.14 5.14 0 0 1-.392 1.951c-.256.642-.713 1.355-1.372 2.139-.659.779-1.588 1.714-2.787 2.804l-2.548 2.498v.119h7.329V255h-12.443Zm21.492.239c-1.204 0-2.278-.222-3.221-.665-.938-.443-1.682-1.054-2.233-1.833-.552-.778-.838-1.67-.861-2.676h3.579c.04.676.324 1.225.853 1.645.528.421 1.156.631 1.883.631.58 0 1.091-.128 1.534-.384a2.743 2.743 0 0 0 1.049-1.082c.255-.466.383-1 .383-1.602 0-.614-.131-1.154-.392-1.62a2.78 2.78 0 0 0-1.065-1.091c-.455-.261-.975-.394-1.56-.4a3.7 3.7 0 0 0-1.491.315c-.478.21-.85.497-1.117.861l-3.281-.588.827-9.205h10.67v3.017h-7.628l-.452 4.373h.103c.307-.432.77-.79 1.389-1.074.619-.284 1.312-.426 2.079-.426 1.052 0 1.989.247 2.813.741a5.34 5.34 0 0 1 1.952 2.037c.477.858.713 1.847.707 2.966.006 1.176-.267 2.222-.818 3.136-.546.909-1.31 1.625-2.293 2.148-.977.517-2.113.776-3.409.776Zm15.793 0a7.915 7.915 0 0 1-2.6-.452 5.936 5.936 0 0 1-2.233-1.44c-.659-.665-1.181-1.546-1.568-2.642-.38-1.097-.571-2.444-.571-4.04.006-1.466.173-2.776.503-3.929.335-1.159.813-2.142 1.432-2.949a6.26 6.26 0 0 1 2.241-1.841c.87-.426 1.844-.639 2.924-.639 1.164 0 2.193.227 3.085.682a5.673 5.673 0 0 1 2.148 1.832c.545.773.875 1.639.988 2.599h-3.639c-.142-.608-.44-1.085-.895-1.431-.454-.347-1.017-.52-1.687-.52-1.137 0-2 .494-2.591 1.483-.586.988-.884 2.332-.895 4.031h.119a4.058 4.058 0 0 1 1.057-1.321 4.819 4.819 0 0 1 1.526-.844 5.492 5.492 0 0 1 1.815-.298c1.034 0 1.954.244 2.761.733a5.2 5.2 0 0 1 1.909 1.994c.466.847.699 1.815.699 2.906 0 1.182-.275 2.233-.827 3.154-.545.92-1.309 1.642-2.292 2.165-.977.517-2.114.772-3.409.767Zm-.017-2.898a2.876 2.876 0 0 0 2.582-1.517c.256-.466.384-.989.384-1.568 0-.58-.128-1.1-.384-1.56a2.876 2.876 0 0 0-1.04-1.099 2.833 2.833 0 0 0-1.517-.409 2.92 2.92 0 0 0-1.184.238 2.966 2.966 0 0 0-.946.665 3.19 3.19 0 0 0-.861 2.173c0 .563.128 1.077.383 1.543a3.07 3.07 0 0 0 1.057 1.116c.449.279.958.418 1.526.418Z"/></g><g filter="url(#c)"><rect width="118" height="118" x="1060" y="279" fill="#ECEEF0" rx="16"/><path stroke="#000" stroke-linecap="round" stroke-linejoin="round" stroke-width="2" d="M1105.5 338h27M1105.5 356v-36M1132.5 356v-36"/><path fill="#ED5F00" fill-opacity=".2" d="M1030 247h179v182h-179z"/><rect width="178" height="178" x="1029" y="249" stroke="#FA934E" stroke-width="4" rx="14"/><rect width="164" height="45" x="1036" y="224" fill="#FA934E" rx="16"/><path fill="#F8F9FA" d="M1065.08 247.432V255h-3.63v-17.455h3.53v6.674h.15c.3-.773.77-1.378 1.43-1.816.66-.443 1.49-.664 2.48-.664.91 0 1.7.199 2.38.596.68.392 1.21.958 1.59 1.696.38.733.56 1.611.56 2.634V255h-3.63v-7.688c0-.806-.2-1.434-.62-1.883-.41-.449-.98-.673-1.72-.673-.49 0-.93.105-1.31.315-.38.21-.67.517-.89.92-.21.398-.31.878-.32 1.441Zm15.08 7.815c-.84 0-1.58-.145-2.23-.435a3.578 3.578 0 0 1-1.56-1.303c-.37-.58-.56-1.302-.56-2.165 0-.728.14-1.338.4-1.833a3.27 3.27 0 0 1 1.09-1.193 5.38 5.38 0 0 1 1.57-.682c.59-.153 1.21-.261 1.86-.324.76-.079 1.37-.153 1.84-.221.47-.074.8-.182 1.01-.324.21-.142.32-.352.32-.631v-.051c0-.54-.17-.957-.51-1.253-.34-.295-.81-.443-1.43-.443-.66 0-1.18.145-1.56.435-.39.284-.65.642-.77 1.074l-3.36-.273c.17-.795.51-1.483 1.01-2.063.5-.585 1.14-1.034 1.93-1.346.8-.318 1.72-.477 2.76-.477.73 0 1.43.085 2.09.255.67.171 1.27.435 1.78.793.53.358.94.818 1.24 1.381.3.556.45 1.224.45 2.002V255h-3.44v-1.815h-.1c-.22.409-.5.77-.85 1.082-.35.307-.77.548-1.27.724-.49.171-1.06.256-1.71.256Zm1.04-2.506c.53 0 1-.105 1.41-.315.41-.216.73-.506.97-.869.23-.364.35-.776.35-1.236v-1.389a2.03 2.03 0 0 1-.47.204c-.2.057-.42.111-.66.162-.24.046-.49.088-.73.128-.25.034-.47.065-.67.094-.42.062-.8.162-1.11.298-.32.137-.57.321-.75.554-.17.227-.26.512-.26.852 0 .495.18.873.54 1.134.36.256.82.383 1.38.383Zm20.04-7.099-3.32.205c-.06-.285-.18-.54-.37-.767a2.01 2.01 0 0 0-.74-.554c-.3-.142-.66-.214-1.08-.214-.57 0-1.04.12-1.43.358-.38.233-.58.546-.58.938 0 .312.13.577.38.793.25.215.68.389 1.28.519l2.37.478c1.28.261 2.23.682 2.85 1.261.63.58.94 1.341.94 2.284 0 .858-.26 1.611-.76 2.259-.5.647-1.19 1.153-2.06 1.517-.87.358-1.88.537-3.01.537-1.73 0-3.12-.361-4.14-1.083-1.03-.727-1.63-1.716-1.8-2.966l3.57-.187c.11.528.37.932.78 1.21.42.273.95.409 1.6.409.63 0 1.14-.122 1.53-.366.39-.25.59-.571.6-.963-.01-.33-.15-.6-.42-.81-.27-.216-.69-.381-1.26-.494l-2.27-.452c-1.28-.256-2.23-.699-2.85-1.33-.62-.63-.93-1.434-.93-2.412 0-.84.22-1.565.68-2.173.46-.608 1.1-1.077 1.93-1.406.84-.33 1.82-.494 2.94-.494 1.65 0 2.95.349 3.9 1.048.95.699 1.51 1.65 1.67 2.855Zm6.21 1.79V255h-3.63v-17.455h3.53v6.674h.16a3.67 3.67 0 0 1 1.43-1.816c.66-.443 1.48-.664 2.48-.664.91 0 1.7.199 2.38.596.68.392 1.21.958 1.58 1.696.38.733.57 1.611.56 2.634V255h-3.63v-7.688c.01-.806-.2-1.434-.61-1.883-.41-.449-.98-.673-1.72-.673-.5 0-.93.105-1.32.315-.37.21-.67.517-.88.92-.21.398-.32.878-.33 1.441Zm21.73 7.781c-1 0-1.9-.256-2.7-.767-.8-.517-1.44-1.276-1.91-2.276-.47-1.005-.7-2.238-.7-3.698 0-1.5.24-2.748.72-3.742.49-1 1.13-1.747 1.93-2.241.81-.5 1.69-.75 2.65-.75.73 0 1.34.125 1.83.375.5.244.89.551 1.2.92.3.364.54.722.69 1.074h.12v-6.563h3.62V255h-3.58v-2.097h-.16c-.17.364-.41.725-.72 1.083-.31.352-.71.645-1.2.878-.49.233-1.09.349-1.79.349Zm1.15-2.889c.58 0 1.08-.159 1.48-.477.41-.324.72-.776.94-1.356.22-.579.33-1.258.33-2.036 0-.779-.11-1.455-.32-2.029-.22-.574-.53-1.017-.94-1.329-.41-.313-.91-.469-1.49-.469-.6 0-1.1.162-1.51.486-.41.323-.72.772-.93 1.346-.21.574-.31 1.239-.31 1.995 0 .761.1 1.434.31 2.019.22.58.53 1.035.93 1.364.41.324.91.486 1.51.486Zm13.02 2.923c-.84 0-1.58-.145-2.24-.435a3.608 3.608 0 0 1-1.55-1.303c-.37-.58-.56-1.302-.56-2.165 0-.728.13-1.338.4-1.833a3.27 3.27 0 0 1 1.09-1.193c.46-.301.98-.528 1.57-.682.59-.153 1.21-.261 1.86-.324.76-.079 1.37-.153 1.84-.221.46-.074.8-.182 1.01-.324.21-.142.32-.352.32-.631v-.051c0-.54-.17-.957-.51-1.253-.34-.295-.82-.443-1.44-.443-.65 0-1.17.145-1.56.435-.38.284-.64.642-.76 1.074l-3.36-.273c.17-.795.51-1.483 1.01-2.063.5-.585 1.14-1.034 1.93-1.346.8-.318 1.72-.477 2.76-.477.73 0 1.42.085 2.09.255a5.5 5.5 0 0 1 1.78.793c.52.358.94.818 1.24 1.381.3.556.45 1.224.45 2.002V255h-3.45v-1.815h-.1c-.21.409-.49.77-.84 1.082a3.92 3.92 0 0 1-1.27.724c-.5.171-1.07.256-1.71.256Zm1.04-2.506c.53 0 1-.105 1.41-.315.41-.216.73-.506.96-.869.24-.364.35-.776.35-1.236v-1.389c-.11.074-.27.142-.47.204a8.33 8.33 0 0 1-.65.162c-.25.046-.49.088-.74.128l-.66.094c-.43.062-.8.162-1.12.298-.31.137-.56.321-.74.554-.17.227-.26.512-.26.852 0 .495.18.873.53 1.134.37.256.83.383 1.39.383Zm16.11-10.832v2.727h-7.89v-2.727h7.89Zm-6.1-3.136h3.63v12.204c0 .335.06.597.16.784.1.182.24.31.42.384.19.074.41.111.65.111.17 0 .34-.015.51-.043.17-.034.3-.06.4-.077l.57 2.702c-.19.057-.44.122-.77.196-.33.08-.73.128-1.2.145-.88.034-1.64-.082-2.3-.349-.66-.268-1.17-.682-1.53-1.245-.36-.562-.54-1.273-.54-2.13v-12.682Zm12.2 16.474c-.84 0-1.58-.145-2.24-.435a3.608 3.608 0 0 1-1.55-1.303c-.37-.58-.56-1.302-.56-2.165 0-.728.13-1.338.4-1.833a3.27 3.27 0 0 1 1.09-1.193c.46-.301.98-.528 1.57-.682.59-.153 1.21-.261 1.86-.324.76-.079 1.37-.153 1.84-.221.46-.074.8-.182 1.01-.324.21-.142.32-.352.32-.631v-.051c0-.54-.17-.957-.51-1.253-.34-.295-.82-.443-1.44-.443-.65 0-1.17.145-1.56.435-.38.284-.64.642-.76 1.074l-3.36-.273c.17-.795.51-1.483 1.01-2.063.5-.585 1.14-1.034 1.93-1.346.8-.318 1.72-.477 2.76-.477.73 0 1.42.085 2.09.255a5.5 5.5 0 0 1 1.78.793c.52.358.94.818 1.24 1.381.3.556.45 1.224.45 2.002V255h-3.45v-1.815h-.1c-.21.409-.49.77-.84 1.082a3.92 3.92 0 0 1-1.27.724c-.5.171-1.07.256-1.71.256Zm1.04-2.506c.53 0 1-.105 1.41-.315.41-.216.73-.506.96-.869.24-.364.35-.776.35-1.236v-1.389c-.11.074-.27.142-.47.204a8.33 8.33 0 0 1-.65.162c-.25.046-.49.088-.74.128l-.66.094c-.43.062-.8.162-1.12.298-.31.137-.56.321-.74.554-.17.227-.26.512-.26.852 0 .495.18.873.53 1.134.37.256.83.383 1.39.383Z"/></g><path fill="#FA934E" d="m692 338-20-11.547v23.094L692 338Zm-117 0v-8h-4v8h4Zm-4 0v8h4v-8h-4Zm2 2h101v-4H573v4Z"/><path fill="#8DA4EF" d="m1022 338-20-11.547v23.094L1022 338Zm-117 0v-8h-4v8h4Zm-4 0v8h4v-8h-4Zm2 2h101v-4H903v4Z"/><g stroke="#EB9091" stroke-linecap="round" stroke-linejoin="round" stroke-width="4" filter="url(#d)"><path fill="#FBFCFD" d="M1119.5 156c8.84 0 16-7.163 16-16s-7.16-16-16-16-16 7.163-16 16 7.16 16 16 16Z"/><path d="m1124.5 135-10 10M1114.5 135l10 10M1139.5 160l-8.6-8.6"/></g><g stroke="#5BB98C" stroke-linecap="round" stroke-linejoin="round" stroke-width="4" filter="url(#e)"><path fill="#FBFCFD" d="M480.5 156c8.837 0 16-7.163 16-16s-7.163-16-16-16-16 7.163-16 16 7.163 16 16 16Z"/><path d="m500.5 160-8.6-8.6"/></g><path fill="#FA934E" d="m480.5 216 11.547-20h-23.094l11.547 20Zm-2-48v24h4v-24h-4Zm0 24v6h4v-6h-4ZM1119.5 215.5l11.55-20h-23.1l11.55 20Zm-2-47.5v24h4v-24h-4Zm0 24v5.5h4V192h-4Z"/><defs><filter id="a" width="212" height="235" x="376" y="219" color-interpolation-filters="sRGB" filterUnits="userSpaceOnUse"><feFlood flood-opacity="0" result="BackgroundImageFix"/><feColorMatrix in="SourceAlpha" result="hardAlpha" values="0 0 0 0 0 0 0 0 0 0 0 0 0 0 0 0 0 0 127 0"/><feOffset dy="10"/><feGaussianBlur stdDeviation="7.5"/><feComposite in2="hardAlpha" operator="out"/><feColorMatrix values="0 0 0 0 0.0823529 0 0 0 0 0.0901961 0 0 0 0 0.0941176 0 0 0 0.1 0"/><feBlend in2="BackgroundImageFix" result="effect1_dropShadow_35_107"/><feColorMatrix in="SourceAlpha" result="hardAlpha" values="0 0 0 0 0 0 0 0 0 0 0 0 0 0 0 0 0 0 127 0"/><feOffset dy="4"/><feGaussianBlur stdDeviation="3"/><feComposite in2="hardAlpha" operator="out"/><feColorMatrix values="0 0 0 0 0.0823529 0 0 0 0 0.0901961 0 0 0 0 0.0941176 0 0 0 0.1 0"/><feBlend in2="effect1_dropShadow_35_107" result="effect2_dropShadow_35_107"/><feBlend in="SourceGraphic" in2="effect2_dropShadow_35_107" result="shape"/></filter><filter id="b" width="236" height="235" x="682" y="219" color-interpolation-filters="sRGB" filterUnits="userSpaceOnUse"><feFlood flood-opacity="0" result="BackgroundImageFix"/><feColorMatrix in="SourceAlpha" result="hardAlpha" values="0 0 0 0 0 0 0 0 0 0 0 0 0 0 0 0 0 0 127 0"/><feOffset dy="10"/><feGaussianBlur stdDeviation="7.5"/><feComposite in2="hardAlpha" operator="out"/><feColorMatrix values="0 0 0 0 0.0823529 0 0 0 0 0.0901961 0 0 0 0 0.0941176 0 0 0 0.1 0"/><feBlend in2="BackgroundImageFix" result="effect1_dropShadow_35_107"/><feColorMatrix in="SourceAlpha" result="hardAlpha" values="0 0 0 0 0 0 0 0 0 0 0 0 0 0 0 0 0 0 127 0"/><feOffset dy="4"/><feGaussianBlur stdDeviation="3"/><feComposite in2="hardAlpha" operator="out"/><feColorMatrix values="0 0 0 0 0.0823529 0 0 0 0 0.0901961 0 0 0 0 0.0941176 0 0 0 0.1 0"/><feBlend in2="effect1_dropShadow_35_107" result="effect2_dropShadow_35_107"/><feBlend in="SourceGraphic" in2="effect2_dropShadow_35_107" result="shape"/></filter><filter id="c" width="212" height="235" x="1012" y="219" color-interpolation-filters="sRGB" filterUnits="userSpaceOnUse"><feFlood flood-opacity="0" result="BackgroundImageFix"/><feColorMatrix in="SourceAlpha" result="hardAlpha" values="0 0 0 0 0 0 0 0 0 0 0 0 0 0 0 0 0 0 127 0"/><feOffset dy="10"/><feGaussianBlur stdDeviation="7.5"/><feComposite in2="hardAlpha" operator="out"/><feColorMatrix values="0 0 0 0 0.0823529 0 0 0 0 0.0901961 0 0 0 0 0.0941176 0 0 0 0.1 0"/><feBlend in2="BackgroundImageFix" result="effect1_dropShadow_35_107"/><feColorMatrix in="SourceAlpha" result="hardAlpha" values="0 0 0 0 0 0 0 0 0 0 0 0 0 0 0 0 0 0 127 0"/><feOffset dy="4"/><feGaussianBlur stdDeviation="3"/><feComposite in2="hardAlpha" operator="out"/><feColorMatrix values="0 0 0 0 0.0823529 0 0 0 0 0.0901961 0 0 0 0 0.0941176 0 0 0 0.1 0"/><feBlend in2="effect1_dropShadow_35_107" result="effect2_dropShadow_35_107"/><feBlend in="SourceGraphic" in2="effect2_dropShadow_35_107" result="shape"/></filter><filter id="d" width="70" height="70" x="1086.5" y="117" color-interpolation-filters="sRGB" filterUnits="userSpaceOnUse"><feFlood flood-opacity="0" result="BackgroundImageFix"/><feColorMatrix in="SourceAlpha" result="hardAlpha" values="0 0 0 0 0 0 0 0 0 0 0 0 0 0 0 0 0 0 127 0"/><feOffset dy="10"/><feGaussianBlur stdDeviation="7.5"/><feComposite in2="hardAlpha" operator="out"/><feColorMatrix values="0 0 0 0 0.0823529 0 0 0 0 0.0901961 0 0 0 0 0.0941176 0 0 0 0.1 0"/><feBlend in2="BackgroundImageFix" result="effect1_dropShadow_35_107"/><feColorMatrix in="SourceAlpha" result="hardAlpha" values="0 0 0 0 0 0 0 0 0 0 0 0 0 0 0 0 0 0 127 0"/><feOffset dy="4"/><feGaussianBlur stdDeviation="3"/><feComposite in2="hardAlpha" operator="out"/><feColorMatrix values="0 0 0 0 0.0823529 0 0 0 0 0.0901961 0 0 0 0 0.0941176 0 0 0 0.1 0"/><feBlend in2="effect1_dropShadow_35_107" result="effect2_dropShadow_35_107"/><feBlend in="SourceGraphic" in2="effect2_dropShadow_35_107" result="shape"/></filter><filter id="e" width="70" height="70" x="447.5" y="117" color-interpolation-filters="sRGB" filterUnits="userSpaceOnUse"><feFlood flood-opacity="0" result="BackgroundImageFix"/><feColorMatrix in="SourceAlpha" result="hardAlpha" values="0 0 0 0 0 0 0 0 0 0 0 0 0 0 0 0 0 0 127 0"/><feOffset dy="10"/><feGaussianBlur stdDeviation="7.5"/><feComposite in2="hardAlpha" operator="out"/><feColorMatrix values="0 0 0 0 0.0823529 0 0 0 0 0.0901961 0 0 0 0 0.0941176 0 0 0 0.1 0"/><feBlend in2="BackgroundImageFix" result="effect1_dropShadow_35_107"/><feColorMatrix in="SourceAlpha" result="hardAlpha" values="0 0 0 0 0 0 0 0 0 0 0 0 0 0 0 0 0 0 127 0"/><feOffset dy="4"/><feGaussianBlur stdDeviation="3"/><feComposite in2="hardAlpha" operator="out"/><feColorMatrix values="0 0 0 0 0.0823529 0 0 0 0 0.0901961 0 0 0 0 0.0941176 0 0 0 0.1 0"/><feBlend in2="effect1_dropShadow_35_107" result="effect2_dropShadow_35_107"/><feBlend in="SourceGraphic" in2="effect2_dropShadow_35_107" result="shape"/></filter></defs></svg>